<?xml version="1.0" encoding="UTF-8"?>
<svg version="1.1" xmlns="http://www.w3.org/2000/svg" width="675" height="150">
<path d="M0 0 C10.56 0 21.12 0 32 0 C31.67 1.32 31.34 2.64 31 4 C28.69 4.33 26.38 4.66 24 5 C26.35230991 15.8206256 30.0295475 26.13019672 33.6875 36.5625 C34.88424061 39.97863896 36.07469949 43.39687924 37.26171875 46.81640625 C37.53666672 47.59448135 37.81161469 48.37255646 38.09489441 49.17420959 C39.15771922 52.23573878 40 54.73449094 40 58 C40.66 58 41.32 58 42 58 C42.16290527 57.45182617 42.32581055 56.90365234 42.49365234 56.33886719 C43.77845703 52.23343956 45.18915508 48.46451675 47.2890625 44.703125 C50.98635867 37.83342901 53.86555338 32.09379214 52.03125 24.203125 C50.07484123 17.80171213 47.72185122 11.58277683 44 6 C40.44327821 4.7811879 40.44327821 4.7811879 37 4 C37 2.68 37 1.36 37 0 C47.56 0 58.12 0 69 0 C69 1.32 69 2.64 69 4 C66.36 4.66 63.72 5.32 61 6 C61.63375017 11.97289223 63.2435553 17.36297386 65.125 23.0546875 C65.58543701 24.46791794 65.58543701 24.46791794 66.05517578 25.90969849 C66.70135179 27.88894103 67.35032836 29.86727122 68.00195312 31.84472656 C69.00292375 34.8838771 69.99431465 37.92602987 70.984375 40.96875 C71.614025 42.89341191 72.24421418 44.81789754 72.875 46.7421875 C73.17293457 47.65563934 73.47086914 48.56909119 73.77783203 49.51022339 C74.05481934 50.34844635 74.33180664 51.18666931 74.6171875 52.05029297 C74.86065918 52.7908493 75.10413086 53.53140564 75.35498047 54.29440308 C75.86847435 56.00556349 75.86847435 56.00556349 77 57 C79.43251812 50.54470563 81.85225611 44.08472671 84.26318359 37.62133789 C85.08479269 35.42329841 85.9093174 33.22634646 86.73681641 31.03051758 C87.92599049 27.87342455 89.10461191 24.71256431 90.28125 21.55078125 C90.83903137 20.08020012 90.83903137 20.08020012 91.40808105 18.57991028 C91.74843384 17.65933334 92.08878662 16.73875641 92.43945312 15.7902832 C92.89245789 14.5811602 92.89245789 14.5811602 93.35461426 13.34761047 C94.05423634 10.80271366 94.11642895 8.62691916 94 6 C91.36 5.34 88.72 4.68 86 4 C86 2.68 86 1.36 86 0 C95.24 0 104.48 0 114 0 C114 1.32 114 2.64 114 4 C113.12988281 4.11601563 113.12988281 4.11601563 112.2421875 4.234375 C108.29609731 5.0939194 105.71772342 5.93504735 103.39997864 9.37409973 C102.94805649 10.340952 102.49613434 11.30780426 102.03051758 12.30395508 C101.5246109 13.38440094 101.01870422 14.4648468 100.49746704 15.57803345 C98.0683849 21.12889875 95.8159724 26.73356862 93.63671875 32.38671875 C92.90744884 34.25571374 92.17817641 36.12470775 91.4487505 37.99364185 C90.44501341 40.56947394 89.44645121 43.1472984 88.44793701 45.72515869 C86.68099186 50.28483872 84.90787343 54.8421153 83.13154602 59.39814758 C82.18929956 61.81642524 81.24991748 64.23582124 80.31364441 66.65641785 C79.89262955 67.73877213 79.47161469 68.8211264 79.0378418 69.9362793 C78.667332 70.89269821 78.2968222 71.84911713 77.91508484 72.83451843 C77 75 77 75 76 76 C74.00041636 76.04080783 71.99954746 76.04254356 70 76 C66.00705864 67.07347244 62.82129387 57.91346209 59.6796875 48.65991211 C59.34710938 47.68546143 59.01453125 46.71101074 58.671875 45.70703125 C58.3737793 44.8250708 58.07568359 43.94311035 57.76855469 43.03442383 C57.17300046 41.03580418 57.17300046 41.03580418 56 40 C55.55084229 41.05501709 55.10168457 42.11003418 54.63891602 43.19702148 C52.97712176 47.09861436 51.31216832 50.99885227 49.64624023 54.89868164 C48.92466906 56.58906657 48.20396352 58.27982128 47.48413086 59.97094727 C46.45131338 62.39696658 45.41542414 64.82165356 44.37890625 67.24609375 C44.05596085 68.00651474 43.73301544 68.76693573 43.40028381 69.55039978 C41.11387171 74.88612829 41.11387171 74.88612829 40 76 C38.00041636 76.04080783 35.99954746 76.04254356 34 76 C29.27214316 63.60603127 24.81069635 51.12257145 20.39404297 38.61474609 C19.23956736 35.34545644 18.08285219 32.07696566 16.92578125 28.80859375 C16.18476744 26.71358707 15.44387746 24.6185366 14.703125 22.5234375 C14.36041565 21.55465668 14.0177063 20.58587585 13.66461182 19.58773804 C13.34377625 18.6788382 13.02294067 17.76993835 12.69238281 16.83349609 C12.39427704 15.99273529 12.09617126 15.15197449 11.78903198 14.28573608 C11.1174623 12.34027495 10.50427565 10.37481907 9.90380859 8.40625 C9.24698402 5.8096516 9.24698402 5.8096516 6.8359375 4.9765625 C6.02382813 4.86054687 5.21171875 4.74453125 4.375 4.625 C3.55773437 4.49351563 2.74046875 4.36203125 1.8984375 4.2265625 C1.27195312 4.15179688 0.64546875 4.07703125 0 4 C0 2.68 0 1.36 0 0 Z " fill="#B04EEE" transform="translate(266,36)"/>
<path d="M0 0 C5.65587346 -0.09958872 11.31122578 -0.17180596 16.96777344 -0.21972656 C18.88811139 -0.23972336 20.80838939 -0.26693006 22.72851562 -0.30175781 C45.35801354 -0.70165538 45.35801354 -0.70165538 54 6.5 C58.06717146 11.58396433 58.49280811 15.51052496 58.3828125 21.953125 C57.6476328 27.80455524 54.72750606 31.4020569 50.5 35.3125 C48.04757867 36.9678844 45.54217303 38.48740705 43 40 C45.22859639 43.18789906 47.45798127 46.37524595 49.6875 49.5625 C50.31333984 50.45775391 50.93917969 51.35300781 51.58398438 52.27539062 C52.81614249 54.03653809 54.05023833 55.79633164 55.28637695 57.5546875 C56.35549653 59.08030393 57.41775801 60.61077762 58.46948242 62.1484375 C62.09888106 67.39988717 65.1005057 69.40936227 71.375 70.6875 C72.24125 70.790625 73.1075 70.89375 74 71 C74 72.65 74 74.3 74 76 C66.33383658 77.05306089 58.36365709 77.75525947 51 75 C44.11259372 69.23957423 40.20300872 60.77536138 36 53 C32.45158901 46.18004804 32.45158901 46.18004804 26.125 42.4375 C25.09375 42.293125 24.0625 42.14875 23 42 C23.08071719 46.10498209 23.19357487 50.20846109 23.3125 54.3125 C23.33505859 55.47974609 23.35761719 56.64699219 23.38085938 57.84960938 C23.4340332 59.52700195 23.4340332 59.52700195 23.48828125 61.23828125 C23.51446533 62.26993408 23.54064941 63.30158691 23.56762695 64.36450195 C23.79755052 67.01169849 23.79755052 67.01169849 25.33276367 68.81713867 C27.74187843 70.52634368 30.10852617 70.67872513 33 71 C33 72.65 33 74.3 33 76 C22.11 76 11.22 76 0 76 C0 74.35 0 72.7 0 71 C4.455 70.01 4.455 70.01 9 69 C9 48.54 9 28.08 9 7 C6.03 6.01 3.06 5.02 0 4 C0 2.68 0 1.36 0 0 Z M23 5 C23 15.23 23 25.46 23 36 C29.38183569 37.06363928 32.34614534 36.69131827 38 34 C42.47749114 30.57043232 44.06070721 27.54182745 45 22 C45.08746755 16.35834323 43.8086167 12.30975047 40 8 C33.85472952 4.31283771 30.83235843 5 23 5 Z " fill="#B04EEE" transform="translate(9,36)"/>
<path d="M0 0 C1.32 0.33 2.64 0.66 4 1 C4 4.96 4 8.92 4 13 C9.28 13 14.56 13 20 13 C20 14.98 20 16.96 20 19 C14.72 19 9.44 19 4 19 C3.95393646 23.44769108 3.91415778 27.89454508 3.89013672 32.34228516 C3.88011661 33.85338149 3.86649679 35.36445862 3.84912109 36.87548828 C3.82469608 39.05506142 3.81347693 41.23437684 3.8046875 43.4140625 C3.79421387 44.7232666 3.78374023 46.0324707 3.77294922 47.38134766 C3.99821054 50.97148018 4.58238013 53.70258758 6 57 C10.27999354 59.13999677 15.49048355 58.09321611 20 57 C20.495 58.98 20.495 58.98 21 61 C15.20997113 64.98868655 10.05183376 66.25964042 3 66 C-0.77601104 65.21420028 -3.35052623 63.61544884 -6.16699219 60.9465332 C-8.698169 56.87770356 -8.50779107 53.67542754 -8.390625 48.98046875 C-8.38496521 48.12189774 -8.37930542 47.26332672 -8.37347412 46.3787384 C-8.35115787 43.6477484 -8.30097167 40.91809061 -8.25 38.1875 C-8.2299288 36.33139921 -8.21167911 34.47527777 -8.1953125 32.61914062 C-8.15130881 28.07891704 -8.08231521 23.53968407 -8 19 C-10.97 19 -13.94 19 -17 19 C-17.33 20.32 -17.66 21.64 -18 23 C-21.04983996 24.52491998 -23.6423369 24.23562548 -27 24 C-28.0194119 23.01979625 -29.02246356 22.02196992 -30 21 C-32.56189845 20.84525388 -32.56189845 20.84525388 -35 22 C-38.21464199 26.11065936 -38.35424372 29.36160857 -38.29296875 34.48828125 C-38.28660149 35.5430793 -38.28660149 35.5430793 -38.28010559 36.6191864 C-38.2634006 38.85069131 -38.22576614 41.08127113 -38.1875 43.3125 C-38.17244248 44.8313671 -38.15875594 46.35024846 -38.14648438 47.86914062 C-38.11352473 51.57972434 -38.06180016 55.28977178 -38 59 C-35.03 59.33 -32.06 59.66 -29 60 C-29 61.65 -29 63.3 -29 65 C-38.57 65 -48.14 65 -58 65 C-58.33 63.68 -58.66 62.36 -59 61 C-53.25 59 -53.25 59 -51 59 C-51 46.46 -51 33.92 -51 21 C-53.64 20.34 -56.28 19.68 -59 19 C-58.67 17.68 -58.34 16.36 -58 15 C-55.77332235 14.32506659 -53.54354023 13.66036956 -51.3125 13 C-49.45044922 12.443125 -49.45044922 12.443125 -47.55078125 11.875 C-44.4989981 11.12296543 -42.11101638 10.80965101 -39 11 C-38.67 13.31 -38.34 15.62 -38 18 C-37.113125 17.21625 -36.22625 16.4325 -35.3125 15.625 C-31.69192542 12.63187863 -28.70680101 11.21335013 -24 10.625 C-20.28316162 11.0896048 -18.68887443 12.46929465 -16 15 C-9.06628678 10.74007162 -4.5281493 6.79222395 0 0 Z " fill="#AF4EEE" transform="translate(615,47)"/>
<path d="M0 0 C-0.33 10.89 -0.66 21.78 -1 33 C1.97 31.35 4.94 29.7 8 28 C13.4753568 26.17488107 18.87712063 26.17282928 24.1875 28.5625 C30.13945475 31.94159782 34.41588925 37.11660991 36.52734375 43.640625 C38.51812041 53.5780556 37.19083612 62.490829 31.71484375 70.99609375 C27.34552847 76.65551327 21.03858077 80.61211083 14 82 C7.51357348 82.47174011 2.01978388 81.160823 -4.2421875 79.4609375 C-5.15226562 79.30882813 -6.06234375 79.15671875 -7 79 C-7.99 79.99 -7.99 79.99 -9 81 C-11.125 80.625 -11.125 80.625 -13 80 C-12.99666908 78.7509211 -12.99666908 78.7509211 -12.99327087 77.47660828 C-12.97324428 69.63383949 -12.95801375 61.79107929 -12.94818783 53.94829082 C-12.94296644 49.91611835 -12.93588226 45.88396697 -12.92456055 41.85180664 C-12.91370528 37.96147771 -12.90771755 34.07116909 -12.90512276 30.18082619 C-12.90327328 28.6956532 -12.89966179 27.21048135 -12.89426994 25.725317 C-12.88702451 23.6471757 -12.88601054 21.56911867 -12.88647461 19.4909668 C-12.88314369 17.71558784 -12.88314369 17.71558784 -12.87974548 15.90434265 C-12.86860025 12.93301528 -12.86860025 12.93301528 -14 10 C-17.51190809 8.77030122 -17.51190809 8.77030122 -21 8 C-21 6.68 -21 5.36 -21 4 C-18.25336296 3.13343002 -15.5035757 2.28148214 -12.75 1.4375 C-11.97269531 1.19064453 -11.19539063 0.94378906 -10.39453125 0.68945312 C-9.26337891 0.34624023 -9.26337891 0.34624023 -8.109375 -0.00390625 C-7.07248535 -0.32597046 -7.07248535 -0.32597046 -6.01464844 -0.65454102 C-4 -1 -4 -1 0 0 Z M2.32275391 37.02661133 C1.22624512 37.67782959 0.12973633 38.32904785 -1 39 C-1.14852367 43.62632203 -1.25729019 48.25125242 -1.32958984 52.87939453 C-1.35973081 54.45288263 -1.40065294 56.02620312 -1.45263672 57.59912109 C-1.52558491 59.86337587 -1.55947806 62.12540814 -1.5859375 64.390625 C-1.61690521 65.09181458 -1.64787292 65.79300415 -1.67977905 66.51544189 C-1.74556471 68.78083582 -1.74556471 68.78083582 -1 72 C3.41221203 75.69366027 7.29549439 77.28522528 13 77 C17.71211967 75.36888165 20.33142063 73.19348186 23 69 C26.35316199 60.78475312 26.13012454 51.17260105 22.99609375 42.91015625 C21.49718213 40.0357728 19.45873009 38.07050955 17 36 C16.67 35.67 16.34 35.34 16 35 C13.87470008 34.72149003 13.87470008 34.72149003 11.375 34.6875 C10.11816406 34.63142578 10.11816406 34.63142578 8.8359375 34.57421875 C6.03856915 34.99420931 4.70571388 35.61136772 2.32275391 37.02661133 Z " fill="#B04EEE" transform="translate(460,31)"/>
<path d="M0 0 C0.33 1.98 0.66 3.96 1 6 C1.86625 5.38125 2.7325 4.7625 3.625 4.125 C9.61697683 0.35227385 15.00947976 -0.79066925 22 0 C27.19418123 1.76406155 29.44792054 4.17940546 32 9 C32.97335182 13.52878407 33.18696615 17.96307678 33.31640625 22.5859375 C33.33718735 23.28772125 33.35796844 23.989505 33.37937927 24.71255493 C33.44426324 26.93327958 33.5034723 29.15411276 33.5625 31.375 C33.60574354 32.88933371 33.6493596 34.40365683 33.69335938 35.91796875 C33.79988086 39.61186655 33.90131677 43.30588354 34 47 C35.98 47.66 37.96 48.32 40 49 C40 50.65 40 52.3 40 54 C31.42 54 22.84 54 14 54 C13.67 52.35 13.34 50.7 13 49 C13.969375 48.87625 14.93875 48.7525 15.9375 48.625 C16.948125 48.41875 17.95875 48.2125 19 48 C21.13411544 43.73176912 20.18585438 38.04664873 20.18530273 33.30639648 C20.18748081 31.20600877 20.2056167 29.10615355 20.22460938 27.00585938 C20.22754516 25.66406429 20.22952872 24.32226672 20.23046875 22.98046875 C20.23457764 21.76254639 20.23868652 20.54462402 20.24291992 19.28979492 C20.00442632 16.05994432 19.47084407 13.86796653 18 11 C15.12215504 8.93307322 12.96213695 8.77844615 9.5 9.1875 C8.7471875 9.26355469 7.994375 9.33960937 7.21875 9.41796875 C4.3707621 10.16506417 3.06636482 10.86675387 1 13 C0.64367542 15.71630443 0.53257383 18.02142924 0.609375 20.73046875 C0.61503479 21.48088943 0.62069458 22.23131012 0.62652588 23.00447083 C0.64890332 25.39946504 0.69909829 27.79295869 0.75 30.1875 C0.77006341 31.81182734 0.78831447 33.43617815 0.8046875 35.06054688 C0.84877206 39.04094207 0.91780573 43.02021671 1 47 C2.98 47.66 4.96 48.32 7 49 C7 50.65 7 52.3 7 54 C-1.91 54 -10.82 54 -20 54 C-20 52.35 -20 50.7 -20 49 C-19.030625 48.87625 -18.06125 48.7525 -17.0625 48.625 C-16.051875 48.41875 -15.04125 48.2125 -14 48 C-12.47651965 44.95303929 -12.85788443 41.77919939 -12.8671875 38.4375 C-12.86623077 37.69040771 -12.86527405 36.94331543 -12.86428833 36.17358398 C-12.86360751 34.59326086 -12.86545497 33.01293494 -12.86962891 31.43261719 C-12.87497858 29.0097019 -12.86968065 26.586972 -12.86328125 24.1640625 C-12.86394205 22.63020792 -12.86522325 21.09635346 -12.8671875 19.5625 C-12.86516327 18.83538818 -12.86313904 18.10827637 -12.86105347 17.35913086 C-12.81491337 13.55338499 -12.81491337 13.55338499 -14 10 C-15.97888961 9.27306096 -17.97954558 8.60183749 -20 8 C-20 6.68 -20 5.36 -20 4 C-17.79471728 3.32331051 -15.58561391 2.65906502 -13.375 2 C-12.14523438 1.62875 -10.91546875 1.2575 -9.6484375 0.875 C-6.26153174 0.06272281 -3.46145571 -0.17041013 0 0 Z " fill="#B04EEE" transform="translate(203,58)"/>
<path d="M0 0 C3.79834328 3.61973377 4.47541221 6.33774262 4.60565186 11.36018372 C4.60688049 12.1655809 4.60810913 12.97097809 4.609375 13.80078125 C4.62591125 14.63715622 4.64244751 15.47353119 4.65948486 16.33525085 C4.7078894 18.99440916 4.72931844 21.65299592 4.75 24.3125 C4.77816609 26.12047135 4.80809441 27.92841615 4.83984375 29.73632812 C4.91364605 34.15750501 4.96326652 38.57836603 5 43 C7.64 43 10.28 43 13 43 C13.33 43.99 13.66 44.98 14 46 C10.03698448 49.71532705 6.36708097 51.49486297 1 52 C-2.70529684 51.30088739 -4.37878569 50.70404288 -6.875 47.875 C-7.24625 47.25625 -7.6175 46.6375 -8 46 C-8.69222656 46.52400391 -8.69222656 46.52400391 -9.3984375 47.05859375 C-14.73497777 50.78151611 -19.44448968 52.39530715 -26 52 C-29.69168076 50.65757063 -32.5444704 49.1017216 -35 46 C-36.71632824 40.85101528 -36.7675665 36.70199529 -34.5625 31.8125 C-28.31253248 24.95277956 -19.9353526 22.59051862 -11 21 C-9.68 21 -8.36 21 -7 21 C-7.14166357 19.08302063 -7.28849584 17.16642277 -7.4375 15.25 C-7.51871094 14.18265625 -7.59992188 13.1153125 -7.68359375 12.015625 C-7.94913876 8.8068415 -7.94913876 8.8068415 -9 5 C-12.3 4.67 -15.6 4.34 -19 4 C-19.5775 5.258125 -20.155 6.51625 -20.75 7.8125 C-22.38972787 11.06318859 -23.61618006 13.35936003 -27 15 C-29.90363 15.42492146 -31.35059867 15.3896408 -33.875 13.875 C-35 12 -35 12 -35.1875 9.1875 C-33.40838829 4.41198962 -30.4098134 2.38806189 -26 0 C-17.08417974 -3.4500348 -8.6602273 -4.82974215 0 0 Z M-16.125 27.3125 C-16.78757813 27.55613281 -17.45015625 27.79976562 -18.1328125 28.05078125 C-21.16306824 29.59126691 -22.71155962 31.15686658 -23.8125 34.375 C-24.03751456 37.5252038 -23.49549186 39.23334006 -22 42 C-19.12138776 44.36222486 -19.12138776 44.36222486 -15.5625 43.75 C-11.45393113 43.01563396 -11.45393113 43.01563396 -8 41 C-7.53290648 38.33517159 -7.30427527 36.04929034 -7.25 33.375 C-7.20552734 32.31539062 -7.20552734 32.31539062 -7.16015625 31.234375 C-7.08944643 29.49019953 -7.04245965 27.74509173 -7 26 C-10.36946513 25.87672689 -12.9739545 26.10768849 -16.125 27.3125 Z " fill="#AF4EEE" transform="translate(167,61)"/>
<path d="M0 0 C8.58 0 17.16 0 26 0 C26 1.32 26 2.64 26 4 C24.02 4.33 22.04 4.66 20 5 C25.1592723 20.12764628 25.1592723 20.12764628 31 35 C34.08721334 29.19439969 36.79407014 23.28242649 39.25 17.1875 C39.50797363 16.55384521 39.76594727 15.92019043 40.03173828 15.26733398 C41.37945341 11.87114566 42.42235565 8.61027718 43 5 C40.69 4.67 38.38 4.34 36 4 C36 2.68 36 1.36 36 0 C43.26 0 50.52 0 58 0 C58 1.32 58 2.64 58 4 C56.96359375 4.24621094 55.9271875 4.49242188 54.859375 4.74609375 C48.98737216 7.29407086 47.50554773 13.50005067 45.25 19.0625 C44.47251475 20.89138528 43.69502776 22.72026983 42.91741943 24.54910278 C41.85293616 27.07010713 40.81106559 29.6001661 39.77001953 32.13092041 C37.62096642 37.34734824 35.43409381 42.54817125 33.25 47.75 C32.79778076 48.82846191 32.34556152 49.90692383 31.87963867 51.01806641 C21.98805207 74.38569765 21.98805207 74.38569765 16 78 C13.0625 79 13.0625 79 10 79 C7.0625 76.875 7.0625 76.875 5 74 C4.8125 71.5 4.8125 71.5 6 69 C8.04920439 66.85321445 9.46166469 65.39125761 12 64 C13.7634375 63.9690625 13.7634375 63.9690625 15.5625 63.9375 C19.02345342 63.33267029 19.02345342 63.33267029 20.70629883 61.05908203 C23.68395735 55.62498845 24.52221392 51.97111895 22.88598633 46.03051758 C21.29175209 41.21778467 19.38658406 36.5457086 17.38867188 31.88793945 C16.12172421 28.92985164 14.92005215 25.95127298 13.7265625 22.96289062 C12.94897275 21.0662036 12.16784373 19.17096289 11.3828125 17.27734375 C11.02107941 16.38989975 10.65934631 15.50245575 10.28665161 14.58811951 C8.27072557 9.9352304 6.91234274 7.05318583 2 5 C1.34 4.67 0.68 4.34 0 4 C0 2.68 0 1.36 0 0 Z " fill="#B04EEE" transform="translate(75,60)"/>
<path d="M0 0 C4.14439769 3.63898334 6.88501726 7.53658455 8 13 C8 15.64 8 18.28 8 21 C-3.22 21 -14.44 21 -26 21 C-23.84428976 33.55865401 -23.84428976 33.55865401 -15.8125 41.375 C-10.14278314 42.63493708 -4.46809843 42.94783504 0.875 40.4375 C4 39 4 39 6.4375 39.3125 C6.953125 39.539375 7.46875 39.76625 8 40 C5.69025252 45.87935722 0.56080576 48.56714748 -5 51 C-12.37251861 53.07942832 -19.1215054 52.11289536 -26 49 C-32.18978061 44.91240903 -34.7213126 39.83606221 -37 33 C-37.77187354 21.73823846 -37.32178986 13.27249869 -30.125 4.125 C-22.61431597 -4.06847349 -9.53181174 -5.69902007 0 0 Z M-23 7 C-25.32057845 10.37538683 -25 11.53602589 -25 16 C-18.07 16 -11.14 16 -4 16 C-5.0068737 6.72545638 -5.0068737 6.72545638 -8.25 3.375 C-14.71447666 0.14276167 -18.0986125 2.0986125 -23 7 Z " fill="#AF4EEE" transform="translate(542,61)"/>
<path d="M0 0 C0 24.75 0 49.5 0 75 C3.465 75.495 3.465 75.495 7 76 C7 77.65 7 79.3 7 81 C-1.91 81 -10.82 81 -20 81 C-20.33 79.68 -20.66 78.36 -21 77 C-15.25 75 -15.25 75 -13 75 C-12.97683886 66.96801972 -12.95906564 58.93605338 -12.94818783 50.90404797 C-12.94296727 47.17454538 -12.9358846 43.44506562 -12.92456055 39.71557617 C-12.91370233 36.11702055 -12.90771692 32.5184869 -12.90512276 28.91991615 C-12.90327381 27.54638638 -12.89966334 26.17285782 -12.89426994 24.79933739 C-12.88702072 22.87689764 -12.88659161 20.95443583 -12.88647461 19.03198242 C-12.884254 17.93722092 -12.88203339 16.84245941 -12.87974548 15.71452332 C-12.88011723 12.90309491 -12.88011723 12.90309491 -14 10 C-17.51190809 8.77030122 -17.51190809 8.77030122 -21 8 C-21 6.68 -21 5.36 -21 4 C-18.25336296 3.13343002 -15.5035757 2.28148214 -12.75 1.4375 C-11.97269531 1.19064453 -11.19539063 0.94378906 -10.39453125 0.68945312 C-9.26337891 0.34624023 -9.26337891 0.34624023 -8.109375 -0.00390625 C-7.07248535 -0.32597046 -7.07248535 -0.32597046 -6.01464844 -0.65454102 C-4 -1 -4 -1 0 0 Z " fill="#B04EEE" transform="translate(430,31)"/>
<path d="M0 0 C0.83287644 2.9049476 1.12219788 5.47513918 1.11352539 8.49316406 C1.11344986 9.37377502 1.11337433 10.25438599 1.11329651 11.16168213 C1.10813522 12.10348328 1.10297394 13.04528442 1.09765625 14.015625 C1.0962413 14.98659119 1.09482635 15.95755737 1.09336853 16.95794678 C1.08777663 20.05532935 1.07522559 23.15263932 1.0625 26.25 C1.05748395 28.35156146 1.05292123 30.45312404 1.04882812 32.5546875 C1.03780985 37.70315292 1.02055074 42.85156416 1 48 C4.465 48.495 4.465 48.495 8 49 C8 50.65 8 52.3 8 54 C-0.91 54 -9.82 54 -19 54 C-19.33 52.68 -19.66 51.36 -20 50 C-14.25 48 -14.25 48 -12 48 C-11.97524936 43.23112363 -11.95711597 38.46228479 -11.94506836 33.69335938 C-11.94004495 32.07160796 -11.93322506 30.44986105 -11.92456055 28.828125 C-11.91240771 26.49478031 -11.90675172 24.1614956 -11.90234375 21.828125 C-11.89718246 21.10506165 -11.89202118 20.38199829 -11.88670349 19.63702393 C-11.78188193 14.70328447 -11.78188193 14.70328447 -13 10 C-15.99615946 8.6954344 -15.99615946 8.6954344 -19 8 C-19 6.68 -19 5.36 -19 4 C-16.77332235 3.32506659 -14.54354023 2.66036956 -12.3125 2 C-10.45044922 1.443125 -10.45044922 1.443125 -8.55078125 0.875 C-5.4989981 0.12296543 -3.11101638 -0.19034899 0 0 Z " fill="#AF4EEF" transform="translate(398,58)"/>
<path d="M0 0 C3.8425303 0.72047443 5.45767292 1.57152696 8 4.5625 C8.8209459 8.34194906 8.47601805 11.47045859 6.9375 15 C4.01717965 17.35509706 1.70537805 17.49861417 -2 17.5625 C-4.94755732 16.21687601 -6.54277272 15.47695456 -8 12.5625 C-8.49512681 8.18887986 -8.49223866 6.24294756 -5.875 2.625 C-3 0.5625 -3 0.5625 0 0 Z " fill="#B04EEE" transform="translate(652,95.4375)"/>
<path d="M0 0 C3.62187046 0.69354966 4.77675205 1.60147503 6.9375 4.5625 C7.9375 6.9375 7.9375 6.9375 7.9375 9.5625 C6.21728046 13.00293907 5.11929117 15.0776626 1.5 16.5625 C-1.54043925 16.5625 -3.39150661 16.00628021 -6.0625 14.5625 C-8.40799674 11.04425489 -8.64241403 9.70474306 -8.0625 5.5625 C-5.57647551 2.19905511 -4.14824477 0.76192251 0 0 Z " fill="#B04EEF" transform="translate(392.0625,31.4375)"/>
</svg>
